# xmcd CD database file
#
# Track frame offsets:
#	150
#	8277
#	26958
#	54163
#	83579
#	99509
#	120424
#	156828
#	184670
#	186249
#	200503
#	221296
#	248921
#	289506
#
# Disc length: 3972 seconds
#
# Revision: 0
# Processed by: cddbd v1.5.1PL0 Copyright (c) Steve Scherf et al.
# Submitted via: CDex 1.51
#
DISCID=ac0f820e
DTITLE=Bill Evans Trio - Lulu White's
DYEAR=1979
DGENRE=Jazz
TTITLE0=DJ Intro
TTITLE1=Re: A Person I Knew
TTITLE2=Midnight Mood
TTITLE3=The Peacocks
TTITLE4=DJ Announcer
TTITLE5=Suicide is Painless (theme from M*A*S*H)
TTITLE6=Lori
TTITLE7=Up With the Lark
TTITLE8=DJ Announcer
TTITLE9=DJ Announcer
TTITLE10=I'm Getting Sentimental Over You
TTITLE11=I Do it for Your Love
TTITLE12=My Romance
TTITLE13=DJ Outro
EXTD=YEAR: 1979
EXTT0=
EXTT1=
EXTT2=
EXTT3=
EXTT4=
EXTT5=
EXTT6=
EXTT7=
EXTT8=
EXTT9=
EXTT10=
EXTT11=
EXTT12=
EXTT13=
PLAYORDER=
